<svg width="240" height="20" viewBox="0 0 240 20" fill="none" xmlns="http://www.w3.org/2000/svg">
<path d="M221.92 16V5.184H217.648V7.104H219.696V16H221.92ZM224.022 19.088L231.078 4.512H228.886L221.83 19.088H224.022ZM235.045 16.16C237.765 16.16 239.141 14.32 239.141 12.464C239.141 10.64 237.909 8.864 235.333 8.864C234.693 8.864 234.069 9.024 233.525 9.376L233.861 7.168H238.501V5.184H232.245L231.301 11.248L233.125 11.84C233.461 11.104 234.101 10.752 234.965 10.752C236.277 10.752 236.837 11.616 236.837 12.464C236.837 13.344 236.341 14.176 235.029 14.176C234.021 14.176 233.285 13.648 233.157 12.704H230.933C230.997 14.72 232.741 16.16 235.045 16.16Z" fill="#757575"/>
<rect y="2" width="200" height="16" rx="8" fill="#EDE8E3"/>
<rect y="2" width="40" height="16" rx="8" fill="#31CD63"/>
</svg>
