<svg width="50" height="50" viewBox="0 0 50 50" fill="none" xmlns="http://www.w3.org/2000/svg">
<circle cx="25" cy="25" r="25" fill="#F4F3F6"/>
<path d="M26.9582 25L32.9304 19.0416C33.192 18.7801 33.3389 18.4254 33.3389 18.0555C33.3389 17.6857 33.192 17.3309 32.9304 17.0694C32.6689 16.8079 32.3142 16.6609 31.9443 16.6609C31.5745 16.6609 31.2198 16.8079 30.9582 17.0694L24.9999 23.0416L19.0416 17.0694C18.78 16.8079 18.4253 16.6609 18.0555 16.6609C17.6856 16.6609 17.3309 16.8079 17.0693 17.0694C16.8078 17.3309 16.6609 17.6857 16.6609 18.0555C16.6609 18.4254 16.8078 18.7801 17.0693 19.0416L23.0416 25L17.0693 30.9583C16.9392 31.0874 16.8358 31.241 16.7653 31.4103C16.6948 31.5795 16.6585 31.7611 16.6585 31.9444C16.6585 32.1278 16.6948 32.3093 16.7653 32.4785C16.8358 32.6478 16.9392 32.8014 17.0693 32.9305C17.1985 33.0607 17.3521 33.164 17.5213 33.2345C17.6906 33.305 17.8721 33.3413 18.0555 33.3413C18.2388 33.3413 18.4203 33.305 18.5896 33.2345C18.7588 33.164 18.9124 33.0607 19.0416 32.9305L24.9999 26.9583L30.9582 32.9305C31.0873 33.0607 31.241 33.164 31.4102 33.2345C31.5795 33.305 31.761 33.3413 31.9443 33.3413C32.1277 33.3413 32.3092 33.305 32.4785 33.2345C32.6477 33.164 32.8013 33.0607 32.9304 32.9305C33.0606 32.8014 33.164 32.6478 33.2345 32.4785C33.305 32.3093 33.3413 32.1278 33.3413 31.9444C33.3413 31.7611 33.305 31.5795 33.2345 31.4103C33.164 31.241 33.0606 31.0874 32.9304 30.9583L26.9582 25Z" fill="black"/>
</svg>
